#!OML:ASF F:\VICON\USERDATA\INSTALL\rory3\rory3.ASF
:FULLY-SPECIFIED
:DEGREES
337
root 0.593584 16.2954 -3.93239 -6.52514 -31.2742 2.49218
lowerback 22.7326 2.53047 -3.78605
upperback 11.0086 2.27907 1.46138
thorax -0.822071 0.831731 3.19914
lowerneck -12.2111 1.85576 -11.5131
upperneck 37.1009 5.6604 -0.0543874
head 14.6491 0.68826 2.83578
rclavicle 2.56432e-014 -1.07344e-014
rhumerus -38.0907 6.03528 -66.2966
rradius 45.0824
rwrist 26.377
rhand -28.4535 13.5139
rfingers 7.12502
rthumb -1.82393 -16.4581
lclavicle 2.56432e-014 -1.07344e-014
lhumerus -46.3226 -36.1509 96.508
lradius 86.7203
lwrist -11.8946
lhand -43.9755 17.3307
lfingers 7.12502
lthumb -16.7976 46.6241
rfemur -57.2479 -22.5355 16.3928
rtibia 69.5945
rfoot 21.2946 -25.6857
rtoes 32.867
lfemur -58.1552 17.2289 -23.3186
ltibia 94.3805
lfoot -6.02499 1.56084
ltoes -16.1289
338
root 0.610993 16.2618 -3.95751 -6.99644 -31.8499 2.83576
lowerback 22.8807 2.66448 -4.1628
upperback 10.9837 2.35595 1.19687
thorax -0.927977 0.863554 3.10723
lowerneck -12.2926 2.0742 -11.6601
upperneck 36.968 6.02727 -0.051063
head 14.5745 0.830769 2.91235
rclavicle -4.79071e-014 1.19271e-014
rhumerus -38.0037 6.02714 -66.0563
rradius 46.5147
rwrist 25.3653
rhand -29.3665 12.7947
rfingers 7.12502
rthumb -2.70566 -17.1679
lclavicle -4.79071e-014 1.19271e-014
lhumerus -46.3156 -36.4114 96.1052
lradius 87.0227
lwrist -12.5681
lhand -44.5817 17.7218
lfingers 7.12502
lthumb -17.3811 46.9647
rfemur -58.2962 -22.5483 16.8047
rtibia 70.1799
rfoot 20.727 -26.2382
rtoes 32.6872
lfemur -58.0289 17.4944 -23.3696
ltibia 94.4915
lfoot -6.02225 1.56708
ltoes -16.6387
339
root 0.63016 16.2277 -3.98197 -7.40155 -32.4207 2.83392
lowerback 23.1106 2.76585 -4.18468
upperback 10.9067 2.45788 0.980911
thorax -1.12534 0.922495 2.85624
lowerneck -11.9849 2.28755 -11.582
upperneck 36.8136 6.29349 -0.162796
head 14.4198 0.953017 2.87688
rclavicle -5.62561e-014 2.14687e-014
rhumerus -38.1828 6.0081 -65.8717
rradius 48.0582
rwrist 24.401
rhand -30.1949 12.3121
rfingers 7.12502
rthumb -3.50566 -17.6388
lclavicle -5.62561e-014 2.14687e-014
lhumerus -46.5956 -36.8095 95.868
lradius 87.3102
lwrist -13.1882
lhand -45.3609 17.572
lfingers 7.12502
lthumb -18.1309 46.747
rfemur -59.1176 -22.5286 17.4875
rtibia 70.7054
rfoot 20.0076 -26.2446
rtoes 32.115
lfemur -57.8297 17.7737 -23.0551
ltibia 94.6461
lfoot -5.92651 1.56962
ltoes -17.2122
340
root 0.651956 16.2012 -4.00352 -7.8793 -32.988 2.69865
lowerback 23.4419 2.84436 -3.97837
upperback 10.8741 2.56934 0.770207
thorax -1.31593 0.991524 2.47621
lowerneck -11.7252 2.46469 -11.383
upperneck 36.6932 6.5265 -0.38952
head 14.3071 1.05906 2.77168
rclavicle -5.4467e-014 3.10104e-014
rhumerus -38.3552 6.01626 -65.7292
rradius 49.5559
rwrist 23.2803
rhand -30.9332 12.1343
rfingers 7.12502
rthumb -4.21865 -17.8037
lclavicle -5.4467e-014 3.10104e-014
lhumerus -46.8686 -37.3438 95.667
lradius 87.5094
lwrist -13.6311
lhand -46.1517 17.7289
lfingers 7.12502
lthumb -18.8916 46.8315
rfemur -59.6113 -22.3153 18.1201
rtibia 71.1795
rfoot 19.2488 -26.0556
rtoes 31.0084
lfemur -57.4458 18.056 -22.5614
ltibia 94.7939
lfoot -5.80124 1.60801
ltoes -17.6319
341
root 0.661644 16.175 -4.02346 -8.3795 -33.4638 2.88101
lowerback 23.563 2.91347 -4.16062
upperback 10.8613 2.60071 0.558204
thorax -1.38719 1.00549 2.34035
lowerneck -11.7048 2.69422 -11.3273
upperneck 36.6454 6.91558 -0.604062
head 14.2708 1.20508 2.72608
rclavicle 5.24792e-014 4.57205e-015
rhumerus -38.2879 6.3006 -65.6091
rradius 51.0959
rwrist 21.9644
rhand -31.665 11.9167
rfingers 7.12502
rthumb -4.92526 -18.0061
lclavicle 5.24792e-014 4.57205e-015
lhumerus -46.9533 -37.6345 95.4071
lradius 87.7174
lwrist -14.066
lhand -46.5078 18.0507
lfingers 7.12502
lthumb -19.2341 47.1195
rfemur -60.2691 -22.1433 18.5458
rtibia 71.6668
rfoot 18.6437 -25.4843
rtoes 29.6223
lfemur -57.1981 18.3069 -22.3922
ltibia 94.9066
lfoot -5.6789 1.66912
ltoes -17.9858
